<?xml version="1.0" standalone="no"?>
<!DOCTYPE svg PUBLIC "-//W3C//DTD SVG 20010904//EN"
 "http://www.w3.org/TR/2001/REC-SVG-20010904/DTD/svg10.dtd">
<svg version="1.0" xmlns="http://www.w3.org/2000/svg"
 width="460.000000pt" height="460.000000pt" viewBox="0 0 460.000000 460.000000"
 preserveAspectRatio="xMidYMid meet">
<metadata>
Created by potrace 1.14, written by Peter Selinger 2001-2017
</metadata>
<g transform="translate(0.000000,460.000000) scale(0.100000,-0.100000)"
fill="#000000" stroke="none">
<path d="M2110 3744 c-77 -10 -187 -40 -257 -70 -17 -8 -34 -14 -38 -14 -23 0
-136 -68 -174 -103 -45 -44 -91 -126 -91 -164 0 -21 -4 -22 -54 -21 -89 2
-147 -51 -200 -182 -58 -142 -61 -312 -9 -470 8 -25 17 -104 20 -185 4 -94 12
-159 24 -199 11 -32 19 -69 19 -81 0 -12 7 -28 15 -35 16 -13 19 -76 5 -120
-7 -24 -8 -24 -15 -5 -16 41 -70 114 -82 110 -7 -2 -10 3 -7 13 2 9 -2 4 -10
-13 -8 -16 -15 -41 -15 -55 0 -23 1 -23 9 -5 5 11 9 14 9 8 1 -7 6 -13 12 -13
7 0 23 -12 37 -27 19 -21 26 -43 34 -102 5 -42 13 -89 17 -106 5 -16 12 -58
15 -92 6 -68 -1 -76 -47 -52 -22 12 -22 12 -3 -10 11 -12 31 -21 46 -21 25 0
28 -3 33 -53 10 -95 95 -286 176 -396 47 -62 160 -168 240 -224 25 -18 48 -35
51 -38 11 -14 100 -54 179 -80 73 -25 100 -29 194 -29 162 0 277 39 437 145
192 130 328 307 396 518 22 66 29 77 48 77 13 0 31 10 42 23 10 12 12 16 4 10
-8 -7 -24 -13 -36 -13 -27 0 -26 5 12 143 14 50 28 106 31 122 2 17 6 35 7 40
2 6 4 14 4 18 2 15 62 58 72 52 6 -4 10 11 10 40 l0 46 -30 -21 c-17 -12 -40
-39 -53 -61 -12 -21 -25 -39 -29 -39 -16 0 -8 76 12 115 36 73 69 205 81 318
8 84 19 133 45 199 40 105 57 202 49 283 -7 58 -6 61 19 73 56 25 116 146 116
235 0 35 -2 38 -16 26 -9 -7 -20 -23 -25 -36 -13 -35 -53 -56 -94 -49 -47 9
-92 51 -151 138 -62 94 -222 253 -301 301 -70 43 -155 79 -253 109 -55 17 -99
21 -280 23 -118 2 -231 1 -250 -1z m-70 -759 c284 -35 395 -40 533 -26 123 13
239 7 260 -13 7 -7 45 -30 85 -51 97 -53 119 -78 153 -178 26 -79 27 -90 17
-141 -7 -31 -16 -56 -21 -56 -4 0 -7 -26 -7 -57 3 -100 -9 -333 -18 -351 -5
-9 -8 -87 -6 -172 4 -180 -13 -306 -51 -382 -14 -27 -25 -56 -25 -64 0 -8 -4
-14 -9 -14 -5 0 -13 -10 -16 -21 -7 -21 -99 -157 -129 -191 -9 -10 -16 -22
-16 -27 0 -5 -30 -35 -67 -67 -36 -33 -71 -64 -77 -70 -6 -5 -19 -13 -29 -17
-11 -4 -15 -12 -11 -19 5 -8 2 -9 -10 -5 -10 4 -28 -1 -44 -12 -78 -53 -88
-58 -126 -60 -14 0 -31 -7 -39 -15 -7 -8 -25 -14 -38 -15 -13 0 -63 -2 -112
-5 -58 -3 -85 -1 -81 6 4 6 -1 8 -15 3 -12 -4 -28 -2 -36 5 -8 6 -18 9 -24 6
-8 -5 -38 6 -91 36 -8 4 -32 15 -52 24 -21 9 -36 20 -33 24 3 4 -20 20 -50 35
-43 22 -52 31 -44 42 9 10 8 13 -6 13 -23 0 -118 99 -151 158 -38 66 -60 93
-69 84 -3 -4 -6 -2 -4 3 4 16 -12 65 -22 65 -5 0 -9 7 -9 16 0 9 -9 33 -20 53
-30 56 -59 153 -71 237 -10 73 -8 112 17 349 4 40 5 289 2 397 -2 47 1 81 5
75 5 -7 6 -3 2 9 -9 35 30 181 67 249 44 80 145 143 253 158 17 2 30 5 30 5 0
1 92 -9 205 -23z m-573 -492 c-3 -10 -5 -4 -5 12 0 17 2 24 5 18 2 -7 2 -21 0
-30z"/>
<path d="M1785 2505 c-33 -7 -89 -28 -125 -47 -54 -27 -65 -37 -65 -58 0 -29
1 -29 145 -10 87 12 102 12 160 -4 100 -28 157 -31 181 -10 23 21 25 71 4 101
-29 41 -175 55 -300 28z"/>
<path d="M2538 2475 c-33 -19 -48 -44 -48 -83 0 -59 69 -79 160 -47 59 21 100
19 208 -10 116 -31 122 -31 122 -1 0 61 -182 144 -335 152 -60 4 -87 1 -107
-11z"/>
<path d="M1485 2450 c3 -5 8 -10 11 -10 2 0 4 5 4 10 0 6 -5 10 -11 10 -5 0
-7 -4 -4 -10z"/>
<path d="M1683 2227 c-41 -16 -92 -66 -93 -91 0 -17 4 -16 33 10 40 38 87 67
94 60 3 -3 0 -13 -8 -22 -18 -22 -18 -120 1 -138 8 -8 43 -20 78 -27 62 -13
66 -13 136 17 16 6 18 4 13 -9 -4 -10 -1 -17 6 -17 19 0 47 54 47 89 0 17 3
31 6 31 8 0 40 -36 61 -67 9 -13 19 -23 24 -23 17 0 9 36 -11 53 -12 10 -18
22 -15 27 3 6 0 10 -7 10 -7 0 -31 16 -53 35 -63 56 -100 69 -195 72 -49 1
-98 -3 -117 -10z m135 -48 c3 -28 -16 -43 -43 -33 -15 6 -21 45 -8 58 16 16
48 1 51 -25z"/>
<path d="M2648 2187 c-21 -6 -38 -14 -38 -19 0 -4 -7 -8 -15 -8 -8 0 -15 -5
-15 -11 0 -5 -4 -8 -8 -5 -5 3 -20 -6 -35 -20 -27 -25 -43 -32 -32 -14 4 6 -1
7 -11 3 -15 -5 -15 -7 0 -15 19 -11 12 -30 -8 -22 -18 7 -38 -20 -30 -40 8
-21 30 -15 28 8 -1 10 1 15 4 12 3 -4 15 3 27 14 l22 21 6 -42 c3 -23 12 -48
19 -56 23 -22 138 -29 175 -10 22 12 33 13 41 5 8 -8 15 -8 27 2 18 15 38 84
31 108 -2 9 -7 27 -11 40 l-7 23 39 -19 c21 -11 52 -35 68 -53 30 -34 30 -34
33 -10 4 28 -30 60 -98 93 -51 24 -153 31 -212 15z m12 -46 c0 -24 -23 -43
-44 -35 -21 8 -20 30 2 43 26 16 42 13 42 -8z"/>
<path d="M2072 1743 c-30 -55 -7 -110 61 -145 60 -31 214 -32 272 -2 47 24 68
70 54 118 -13 45 -24 49 -26 8 -1 -28 -10 -44 -35 -64 -30 -26 -39 -28 -120
-28 -130 0 -175 24 -188 98 -6 35 -7 36 -18 15z"/>
<path d="M1914 1482 c14 -22 169 -63 281 -73 130 -12 296 0 342 25 l28 15 -27
1 c-14 0 -35 3 -45 6 -15 5 -15 4 -3 -5 8 -6 11 -11 5 -11 -5 -1 -44 -5 -85
-10 -137 -16 -307 4 -484 57 -12 4 -17 2 -12 -5z"/>
<path d="M2050 1333 c0 -5 28 -19 63 -31 85 -30 204 -30 281 -1 50 19 73 39
46 39 -5 0 -10 -4 -10 -9 0 -10 -123 -31 -187 -31 -41 0 -95 12 -175 37 -10 3
-18 1 -18 -4z"/>
</g>
</svg>
